<svg xmlns="http://www.w3.org/2000/svg" width="200" height="20" viewBox="0 0 200 20">
  <g fill="#00205B" fill-rule="evenodd">
    <polygon
      points="0 .164 0 4.548 4.443 4.548 4.443 19.676 8.89 19.676 8.89 4.548 13.333 4.548 13.333 .164" />
    <path
      d="M34.92 8.407H32.21V4.464h2.708c1.312 0 2.08.956 2.08 1.971 0 1.016-.768 1.972-2.08 1.972m6.869-1.972c0-3.205-2.33-6.271-6.652-6.271h-7.72v19.505h4.795v-7.258h1.615l3.447 7.258h5.553l-4.213-8.14c1.53-.766 3.175-2.436 3.175-5.094m21.885 6.274c0 1.807-1.038 2.85-2.628 2.85-1.583 0-2.564-1.043-2.564-2.85V.162h-4.794v12.656c0 4.278 3.31 7.018 7.358 7.018 4.054 0 7.423-2.74 7.423-7.018V.162h-4.795v12.547z" />
    <polygon
      points="94.073 4.438 94.073 .167 80.83 .167 80.83 19.669 94.073 19.669 94.073 15.391 85.622 15.391 85.622 11.971 92.845 11.971 92.845 7.697 85.622 7.697 85.622 4.438" />
    <path
      d="M116.123 17.474h-5.08v-6.843h5.08c2.303 0 3.75 1.305 3.75 3.404 0 2.1-1.447 3.439-3.75 3.439zm-5.08-15.11h4.871c2.071 0 3.664.996 3.664 3.225 0 2.231-1.593 3.255-3.664 3.255h-4.871v-6.48zm7.782 7.291c1.57-.573 2.75-2.128 2.75-4.09 0-3.124-2.254-4.984-5.5-4.984h-7.025v18.678h7.257c3.3 0 5.55-1.785 5.55-5.169 0-2.227-1.254-3.776-3.032-4.435z" />
    <polygon
      points="139.072 .58 137.079 .58 137.079 19.256 148.605 19.256 148.605 17.475 139.072 17.475" />
    <path
      d="M170.797 12.936c0 2.83-1.8 4.692-4.529 4.692-2.722 0-4.51-1.862-4.51-4.692V.58h-1.988v12.511c0 3.725 2.722 6.326 6.498 6.326 3.772 0 6.522-2.6 6.522-6.326V.581h-1.993v12.355z" />
    <polygon
      points="187.874 19.256 199.45 19.256 199.45 17.475 189.863 17.475 189.863 10.731 198.038 10.731 198.038 8.948 189.863 8.948 189.863 2.363 199.45 2.363 199.45 .582 187.874 .582" />
  </g>
</svg>