<svg xmlns="http://www.w3.org/2000/svg" viewBox="0 0 578 578" width="578px" height="578px"><style>.st2{fill:#233d94}.st3{fill:#04b2e2}.st4{fill:#90c6e6}.st5{fill:#0087d7}</style><path fill="#00205b" d="M0 0h578v578H0z"/><g opacity=".08"><g><g transform="translate(-353 -164)"><g transform="translate(.163)"><path class="st2" d="M352.8 549.1h192.7v-193H352.8z"/><path class="st3" d="M352.8 357.1h192.7V164H352.8z"/><path class="st4" d="M545.4 549.1h192.7v-193H545.4z"/><path class="st5" d="M738.1 164L545.4 357.1h192.7z"/><path class="st5" d="M545.5 742H352.8l192.7-193.1z"/><path  class="st2" d="M545.4 742h192.7V548.9H545.4z"/><path  class="st3" d="M545.4 742V548.9h192.7z"/><path  class="st2" d="M352.8 164v193.1h192.7z"/><path  class="st5" d="M545.5 549.1H352.8v-193z"/><path  class="st5" d="M738.1 549.1h192.7v-193H738.1z"/><path  class="st2" d="M930.8 549.1H738.1l192.7-193z"/><path  class="st4" d="M738.1 164v193.1h192.7z"/><path  class="st3" d="M738.1 742h192.7V548.9H738.1z"/><path class="st4" d="M930.8 742L738.1 548.9h192.7z"/></g></g></g></g></svg>