<?xml version="1.0" encoding="UTF-8"?>
<svg width="3234px" height="3662px" viewBox="0 0 3234 3662" version="1.1" xmlns="http://www.w3.org/2000/svg" xmlns:xlink="http://www.w3.org/1999/xlink">
    <!-- Generator: Sketch 63.1 (92452) - https://sketch.com -->
    <title>Airbus A321</title>
    <g id="Symbols" stroke="none" stroke-width="1" fill="none" fill-rule="evenodd">
        <g id="Airbus-A321">
            <g transform="translate(1617.000000, 1831.000000) rotate(-270.000000) translate(-1617.000000, -1831.000000) translate(-214.000000, 214.000000)">
                <g id="Wing_left" transform="translate(1624.000000, 2509.000000) rotate(-90.000000) translate(-1624.000000, -2509.000000) translate(899.000000, 1990.000000)" fill="#EEF7FC">
                    <polygon id="Path-9" points="1088 386 1173 317 1076 294 1023 317.146403 1032 356.146403"></polygon>
                    <path d="M1003,315.146403 C989,310.146403 985,281.146403 985,224.146403 C985,167.146403 985,117.146403 989,65.146403 C993,13.146403 996,9.14640299 1006,5.14640299 C1010.5513,3.3258823 1035.39499,-0.829513216 1085,0.14640299 C1134.60501,1.1223192 1162.93528,4.08907552 1171,6.14640299 C1179.06472,8.20373046 1181,10.146403 1183,25.146403 C1184.17267,33.9414216 1186.83521,80.2895716 1187,131.146403 C1187.11626,167.026451 1185.241,209.254448 1184,224.146403 C1182,248.146403 1179.33333,267.146403 1176,281.146403 L1171,316.146403 C1068.33333,318.81307 1012.33333,318.479736 1003,315.146403 Z" id="Path-3"></path>
                    <path d="M1449,721 L1026,721.146403 L0,1037.1464 L0,1034.1464 C0,939.479736 32.3333333,875.146403 97,841.146403 L1450,140" id="Path"></path>
                </g>
                <g id="Wing_right" transform="translate(1624.000000, 725.000000) scale(1, -1) rotate(-90.000000) translate(-1624.000000, -725.000000) translate(899.000000, 206.000000)" fill="#EEF7FC">
                    <polygon id="Path-9" points="1088 386 1173 317 1076 294 1023 317.146403 1032 356.146403"></polygon>
                    <path d="M1003,315.146403 C989,310.146403 985,281.146403 985,224.146403 C985,167.146403 985,117.146403 989,65.146403 C993,13.146403 996,9.14640299 1006,5.14640299 C1010.5513,3.3258823 1035.39499,-0.829513216 1085,0.14640299 C1134.60501,1.1223192 1162.93528,4.08907552 1171,6.14640299 C1179.06472,8.20373046 1181,10.146403 1183,25.146403 C1184.17267,33.9414216 1186.83521,80.2895716 1187,131.146403 C1187.11626,167.026451 1185.241,209.254448 1184,224.146403 C1182,248.146403 1179.33333,267.146403 1176,281.146403 L1171,316.146403 C1068.33333,318.81307 1012.33333,318.479736 1003,315.146403 Z" id="Path-3"></path>
                    <path d="M1449,721 L1026,721.146403 L0,1037.1464 L0,1034.1464 C0,939.479736 32.3333333,875.146403 97,841.146403 L1450,140" id="Path"></path>
                </g>
                <path d="M3466,1637 L3528,1655 L3649,2184 L3649,2184 L3546,2184 C3539.33333,2184 3531.66667,2179.66667 3523,2171 C3345.66667,1888.33333 3253.33333,1741 3246,1729 C3238.66667,1717 3228,1707.33333 3214,1700 L3214,1700 L3214,1681 L3466,1637 Z M3649,1050 L3528,1579 L3466,1597 L3214,1553 L3214,1534 C3228,1526.66667 3238.66667,1517 3246,1505 C3253.33333,1493 3345.66667,1345.66667 3523,1063 C3531.66667,1054.33333 3539.33333,1050 3546,1050 L3649,1050 L3649,1050 Z" id="Rear-Wing" fill="#EEF7FC"></path>
                <g id="Body" transform="translate(1831.000000, 1617.000000) rotate(-90.000000) translate(-1831.000000, -1617.000000) translate(1655.000000, -214.000000)">
                    <path d="M176,3662 C164.99618,3654.3466 154.390119,3634.3466 144.181818,3602 C128.869367,3553.4801 122.363636,3531 114.181818,3469 C106,3407 103.420733,3321.66062 91.4545455,3242 C83.4770872,3188.89292 64.3861781,3109.22625 34.1818182,3003 C16.1212121,2942.33333 5.51515152,2835 2.36363636,2681 C-0.787878788,2527 -0.787878788,1830.33333 2.36363636,591 C2.83904914,498.247284 4.5966249,433.91395 7.63636364,398 C12.1959717,344.129075 19.2733135,296.00546 28.1818182,259 C37.0903229,221.99454 46.3756081,184.230427 66.4545455,136 C86.5334828,87.7695729 95.7768076,76.8409784 120.363636,44 C136.754856,22.1060144 155.30031,7.43934771 176,0 L176,0 C196.69969,7.43934771 215.245144,22.1060144 231.636364,44 C256.223192,76.8409784 265.466517,87.7695729 285.545455,136 C305.624392,184.230427 314.909677,221.99454 323.818182,259 C332.726686,296.00546 339.804028,344.129075 344.363636,398 C347.403375,433.91395 349.160951,498.247284 349.636364,591 C352.787879,1830.33333 352.787879,2527 349.636364,2681 C346.484848,2835 335.878788,2942.33333 317.818182,3003 C287.613822,3109.22625 268.522913,3188.89292 260.545455,3242 C248.579267,3321.66062 246,3407 237.818182,3469 C229.636364,3531 223.130633,3553.4801 207.818182,3602 C197.609881,3634.3466 187.00382,3654.3466 176,3662 Z" id="Body_Exterior" fill="#EEF7FC"></path>
                    <path d="M176,200 C131.53002,200 90.7364857,228.107064 67.3897462,268.321191 C32.369637,328.642382 25.2778338,372.331143 21.0957916,431.414023 C18.3077635,470.802609 18.0957916,510.273437 18.0957916,1246.29847 C18.0957916,1982.32351 13.3802605,2474.85155 18.0957916,2737.42577 C21.239479,2912.47526 73.8742152,3000 176,3000" id="Path" fill="#FFFFFF"></path>
                    <path d="M336,200 C291.53002,200 250.736486,228.107064 227.389746,268.321191 C192.369637,328.642382 185.277834,372.331143 181.095792,431.414023 C178.307764,470.802609 178.095792,510.273437 178.095792,1246.29847 C178.095792,1982.32351 173.38026,2474.85155 178.095792,2737.42577 C181.239479,2912.47526 233.874215,3000 336,3000" id="Path" fill="#FFFFFF" transform="translate(256.000000, 1600.000000) scale(-1, 1) translate(-256.000000, -1600.000000) "></path>
                </g>
            </g>
        </g>
    </g>
</svg>