<svg xmlns="http://www.w3.org/2000/svg" width="48" height="48" viewBox="0 0 48 48" focusable="false"
  fill="#0033a0">
  <g transform="translate(11 14)">
    <path
      d="M3.56 2.06c-1.01 0-1.83.82-1.83 1.83V16.1c0 1.01.82 1.83 1.83 1.83h18.88c1.01 0 1.83-.82 1.83-1.83V3.89c0-1.01-.82-1.83-1.83-1.83H3.56zm0-1.5h18.88a3.33 3.33 0 0 1 3.33 3.33V16.1a3.33 3.33 0 0 1-3.33 3.33H3.56A3.33 3.33 0 0 1 .23 16.1V3.89A3.33 3.33 0 0 1 3.56.56z"></path>
    <path
      d="M22.507 2.1a.75.75 0 0 1 1.082 1.04l-8 8.32a3.523 3.523 0 0 1-2.54 1.092c-.957 0-1.871-.394-2.541-1.092l-8.01-8.32a.75.75 0 1 1 1.08-1.04l8.011 8.32c.39.406.914.632 1.46.632.544 0 1.069-.226 1.458-.632l8-8.32z"
      class=""></path>
  </g>
</svg>