<svg xmlns="http://www.w3.org/2000/svg" xmlns:xlink="http://www.w3.org/1999/xlink" width="875px"
  height="638px">
  <style>
    #icon:nth-child(1) {
    animation: move1 1.5s ease-out;
    }

    #icon:nth-child(2) {
    animation: move2 1.5s ease-out;
    }

    #icon:nth-child(3) {
    animation: move3 1.5s ease-out;
    }

    #icon:nth-child(4) {
    animation: move4 1.5s ease-out;
    }

    #icon:nth-child(5) {
    animation: move5 1.5s ease-out;
    }

    #icon:nth-child(6) {
    animation: move6 1.5s ease-out;
    }

    @keyframes move1 {
    0% {
    opacity: 0;
    transform: translate(525px, 215px);
    }
    100% {
    opacity: 1;
    transform: translate(689px, 62.911688px);
    }
    }
    @keyframes move2 {
    0% {
    opacity: 0;
    transform: translate(525px, 215px);
    }
    100% {
    opacity: 1;
    transform: translate(402px, 471.911688px);
    }
    }
    @keyframes move3 {
    0% {
    opacity: 0;
    transform: translate(525px, 215px);
    }
    100% {
    opacity: 1;
    transform: translate(351px, 43px);
    }
    }
    @keyframes move4 {
    0% {
    opacity: 0;
    transform: translate(525px, 215px);
    }
    100% {
    opacity: 1;
    transform: translate(786px, 360px);
    }
    }
    @keyframes move5 {
    0% {
    opacity: 0;
    transform: translate(525px, 215px);
    }
    100% {
    opacity: 1;
    transform: translate(204px, 321px);
    }
    }
    @keyframes move6 {
    0% {
    opacity: 0;
    transform: translate(525px, 215px);
    }
    100% {
    opacity: 1;
    transform: translate(954px, 195px);
    }
    }

  </style>

  <defs>
    <polygon id="path-1"
      points="2.54648987 2.0476899 18.8270891 2.0476899 18.8270891 60.899997 2.54648987 60.899997" />
    <polygon id="path-3"
      points="1.84120991 2.0476899 18.1247091 2.0476899 18.1247091 60.899997 1.84120991 60.899997" />
    <path
      d="M96.0743604,-23.2602719 L96.0743604,-23.2602719 C104.342548,-23.3061413 111.082424,-16.640635 111.128293,-8.37244694 C111.1286,-8.31707816 111.1286,-8.26170811 111.128293,-8.20633934 L109.976561,199.399325 C109.93003,207.786795 103.142138,214.574688 94.7546675,214.621219 L94.7546675,214.621219 C86.4864795,214.667088 79.7466043,208.001582 79.7007349,199.733394 C79.7004278,199.678025 79.7004278,199.622655 79.7007349,199.567286 L80.8524669,-8.03837843 C80.898998,-16.4258487 87.6868901,-23.2137408 96.0743604,-23.2602719 Z"
      id="path-5" />
  </defs>
  <g id="Page-1" stroke="none" stroke-width="1" fill="none" fill-rule="evenodd">
    <g id="404-full-image" transform="translate(-204.000000, -43.000000)">
      <g id="icons">
        <g class="plane" id="icon" transform="translate(689.000000, 62.911688)">
          <path d="M193.508156,91.0338397 L0,297.548611" id="Line-3" stroke="#00B5E2"
            stroke-width="4.34999979" stroke-linecap="square"
            stroke-dasharray="23.19999885559082,23.19999885559082" />
          <g
            transform="translate(234.000000, 51.000000) rotate(-45.000000) translate(-234.000000, -51.000000) translate(198.000000, 15.000000)"
            fill-rule="nonzero">
            <path
              d="M13.9076883,29.3856933 L7.33685337,19.1116023 C6.9045616,18.3924159 6.1264364,18.0841931 5.43476957,18.3924159 L3.61914411,19.0088613 C2.66810221,19.3170841 2.14935208,20.549975 2.4951855,21.680125 L5.52122792,32.6734025 L13.9076883,29.3856933 Z"
              id="Shape_44_" fill="#0084D4" />
            <path
              d="M11.8712208,39.8893194 L5.26351873,50.1634105 C4.83444716,50.8825969 4.06211835,51.1908196 3.37560384,50.8825969 L1.57350327,50.2661514 C0.62954583,49.9579287 0.114659953,48.7250377 0.457917205,47.5948877 L3.46141816,36.6016103 L11.8712208,39.8893194 Z"
              id="Shape_45_" fill="#0084D4" />
            <path
              d="M23.3488312,13.1174545 C23.3488312,11.608883 24.1903896,10.3745973 25.218961,10.3745973 L35.8787013,10.5117402 C36.9072727,10.5117402 37.7488312,11.7460259 37.7488312,13.3917402 C37.7488312,14.9003116 36.9072727,16.1345973 35.8787013,16.1345973 L25.218961,15.9974545 C24.1903896,15.8603116 23.3488312,14.6260259 23.3488312,13.1174545 Z"
              id="Shape_46_" fill="#FE8200" />
            <path
              d="M42.9123636,28.9924787 L21.8651668,2.58072601 C21.599866,2.21767786 21.0692644,1.94539175 20.6270964,1.94539175 L16.0285492,1.49158157 C14.7020452,1.40081953 13.7292756,2.85301212 14.2598772,4.12368063 L27.9670852,33.1675324 L42.9123636,28.9924787 Z"
              id="Shape_47_" stroke="#1D2759" stroke-width="4.34999979" fill="#91C8E5" />
            <path
              d="M21.3123636,56.0906593 C21.3123636,57.6360252 22.1484927,58.9004154 23.1704282,58.9004154 L33.7613959,58.7599276 C34.7833314,58.7599276 35.6194604,57.4955374 35.7123636,55.9501715 C35.7123636,54.4048057 34.8762346,53.1404154 33.8542991,53.1404154 L23.2633314,53.2809032 C22.1484927,53.1404154 21.3123636,54.5452935 21.3123636,56.0906593 Z"
              id="Shape_48_" fill="#FE8200" />
            <path
              d="M42.9123636,42.4220201 L21.7849843,68.8186361 C21.4328613,69.1827274 20.9927076,69.4557958 20.5525539,69.4557958 L15.974955,69.8198871 C14.6544938,69.9109099 13.6861556,68.4545449 14.3023708,67.1802255 L28.0351674,38.1439479 L42.9123636,42.4220201 Z"
              id="Shape_49_" stroke="#1D2759" stroke-width="4.34999979" fill="#91C8E5" />
            <path
              d="M0.0617662351,35.7557401 L0.0617662351,35.2557401 C0.0617662351,31.4557401 2.78095405,29.2557401 6.20186776,29.2557401 L63.1293804,28.4557401 C66.4625784,28.4557401 69.1817662,31.5557401 69.1817662,35.4557401 L69.1817662,35.9557401 C69.1817662,39.7557401 66.4625784,42.8557401 63.0416647,42.8557401 L6.11415202,41.7557401 C2.86866979,41.8557401 0.0617662351,39.6557401 0.0617662351,35.7557401 Z"
              id="Shape_50_" stroke="#1D2759" stroke-width="4.34999979" fill="#FFFFFF" />
          </g>
        </g>
        <g class="bag" id="icon" transform="translate(402.000000, 471.911688)">
          <circle id="Oval" fill="#F6F6F6" cx="72.5" cy="72.5" r="72.5" />
          <g id="icons/bags/bag-2" transform="translate(0.000000, 2.900000)">
            <g id="Group" transform="translate(46.399998, 26.099999)">
              <path
                d="M17.8833325,0 L30.4499985,0 C33.6532499,-5.88427734e-16 36.2499982,2.59674832 36.2499982,5.79999971 L36.2499982,17.3999991 C36.2499982,20.6032505 33.6532499,23.1999989 30.4499985,23.1999989 L17.8833325,23.1999989 C14.6800811,23.1999989 12.0833327,20.6032505 12.0833327,17.3999991 L12.0833327,5.79999971 C12.0833327,2.59674832 14.6800811,5.88427734e-16 17.8833325,0 Z"
                id="Rectangle-path" stroke="#00205B" stroke-width="4.34999979"
                transform="translate(24.166665, 11.599999) rotate(-180.000000) translate(-24.166665, -11.599999) " />
              <circle id="Oval" fill="#00205B" fill-rule="nonzero" cx="40.599998" cy="84.0999959"
                r="2.89999986" />
              <circle id="Oval" fill="#00205B" fill-rule="nonzero" cx="7.73333295" cy="84.0999959"
                r="2.89999986" />
              <path
                d="M5.39571019,81.199996 L43.9042874,81.199996 C46.8736943,81.175909 49.2746527,78.8941075 49.2999976,76.0720689 L49.2999976,19.6279264 C49.2746527,16.8058878 46.8736943,14.5240863 43.9042874,14.4999993 L5.39571019,14.4999993 C2.42630327,14.5240863 0.0253448254,16.8058878 3.73034936e-14,19.6279264 L3.73034936e-14,76.0720689 C0.0253448254,78.8941075 2.42630327,81.175909 5.39571019,81.199996 Z"
                id="Shape" stroke="#00205B" stroke-width="4.34999979" fill="#FFFFFF"
                fill-rule="nonzero" />
              <path d="M3.73034936e-14,37.6999981 L48.3333309,37.6999981" id="Shape"
                stroke="#00205B" stroke-width="4.34999979" fill="#F6F6F6" fill-rule="nonzero" />
              <path
                d="M21.2666656,31.8999984 L27.0666653,31.8999984 C28.668291,31.8999984 29.9666652,33.1983726 29.9666652,34.7999983 L29.9666652,34.7999983 C29.9666652,36.401624 28.668291,37.6999981 27.0666653,37.6999981 L21.2666656,37.6999981 C19.6650399,37.6999981 18.3666658,36.401624 18.3666658,34.7999983 L18.3666658,34.7999983 C18.3666658,33.1983726 19.6650399,31.8999984 21.2666656,31.8999984 Z"
                id="Rectangle-path" stroke="#00205B" stroke-width="4.34999979" fill-rule="nonzero"
                transform="translate(24.166665, 34.799998) rotate(-180.000000) translate(-24.166665, -34.799998) " />
              <path d="M36.2499982,5.79999971 L12.0833327,5.79999971" id="Shape" stroke="#00205B"
                stroke-width="4.34999979" />
            </g>
          </g>
        </g>
        <g class="food" id="icon" transform="translate(351.000000, 43.000000)">
          <circle id="Oval" fill="#F6F6F6" cx="139" cy="139" r="139" />
          <g id="icons/food/cutlery" transform="translate(72.395833, 72.395833)">
            <g id="Group-21" transform="translate(37.699998, 28.999999)">
              <path
                d="M10.6850495,77.5201862 C7.79374962,77.5201862 5.44184973,75.1682863 5.44184973,72.2769864 L5.44184973,24.4675888 L15.9282492,24.4675888 L15.9282492,72.2769864 C15.9282492,75.1682863 13.5763493,77.5201862 10.6850495,77.5201862"
                id="Fill-1" fill="#FFFFFF" />
              <g id="Group-5" transform="translate(0.000000, 19.519899)">
                <mask id="mask-2" fill="white">
                  <use xlink:href="#path-1" />
                </mask>
                <g id="Clip-4" />
                <path
                  d="M18.8270891,2.0476899 L13.0270894,2.0476899 L8.34648959,2.0476899 L2.54648987,2.0476899 L2.54648987,7.84768961 L2.54648987,52.7570874 C2.54648987,57.2491872 6.19758969,60.900287 10.6838895,60.900287 C15.1759893,60.900287 18.8270891,57.2491872 18.8270891,52.7570874 L18.8270891,7.84768961 L18.8270891,2.0476899 Z M13.0270894,7.84768961 L13.0270894,52.7570874 C13.0270894,54.0533873 11.9801894,55.1002873 10.6838895,55.1002873 C9.39338954,55.1002873 8.34648959,54.0533873 8.34648959,52.7570874 L8.34648959,7.84768961 L13.0270894,7.84768961 L13.0270894,7.84768961 Z"
                  id="Fill-3" fill="#1D2758" mask="url(#mask-2)" />
              </g>
              <path
                d="M21.5258289,0.855499958 L21.5258289,24.1627988 C21.5258289,28.8752986 17.7065291,32.6974984 12.9911294,32.6974984 L8.53672958,32.6974984 C3.82422981,32.6974984 -0.000869999957,28.8752986 -0.000869999957,24.1627988 L-0.000869999957,0.855499958"
                id="Stroke-6" stroke="#00205B" stroke-width="4.34999979" stroke-linecap="round" />
              <path d="M10.7558095,31.5986884 L10.7558095,0.849989958" id="Stroke-8"
                stroke="#00205B" stroke-width="4.34999979" stroke-linecap="round" />
              <path
                d="M10.7558095,32.0447084 L10.7558095,32.0447084 C4.97610975,32.0447084 0.289709986,27.3583087 0.289709986,21.5786089 L0.289709986,19.0324091 L21.221909,19.0324091 L21.221909,21.5786089 C21.221909,27.3583087 16.5355092,32.0447084 10.7558095,32.0447084"
                id="Fill-10" fill="#00205B" />
              <path
                d="M47.6826676,77.5201862 C44.7913678,77.5201862 42.4394679,75.1682863 42.4394679,72.2769864 L42.4394679,24.4675888 L52.9258674,24.4675888 L52.9258674,72.2769864 C52.9258674,75.1682863 50.5739675,77.5201862 47.6826676,77.5201862"
                id="Fill-12" fill="#FFFFFF" />
              <g id="Group-16" transform="translate(37.699998, 19.519899)">
                <mask id="mask-4" fill="white">
                  <use xlink:href="#path-3" />
                </mask>
                <g id="Clip-15" />
                <path
                  d="M18.1247091,2.0476899 L12.3247094,2.0476899 L7.64120962,2.0476899 L1.84120991,2.0476899 L1.84120991,7.84768961 L1.84120991,52.7570874 C1.84120991,57.2491872 5.49520973,60.900287 9.98150951,60.900287 C14.4707093,60.900287 18.1247091,57.2491872 18.1247091,52.7570874 L18.1247091,7.84768961 L18.1247091,2.0476899 Z M12.3247094,7.84768961 L12.3247094,52.7570874 C12.3247094,54.0533873 11.2778094,55.1002873 9.98150951,55.1002873 C8.68810957,55.1002873 7.64120962,54.0533873 7.64120962,52.7570874 L7.64120962,7.84768961 L12.3247094,7.84768961 L12.3247094,7.84768961 Z"
                  id="Fill-14" fill="#1D2758" mask="url(#mask-4)" />
              </g>
              <path
                d="M61.8851269,20.603339 C61.8851269,28.2651386 55.6733273,34.4740383 48.0173276,34.4740383 C40.355528,34.4740383 34.1466283,28.2651386 34.1466283,20.603339 C34.1466283,12.9444394 40.355528,0.00173999991 48.0173276,0.00173999991 C55.6733273,0.00173999991 61.8851269,12.9444394 61.8851269,20.603339"
                id="Fill-17" fill="#FFFFFF" />
              <path
                d="M61.8851269,20.603339 C61.8851269,28.2651386 55.6733273,34.4740383 48.0173276,34.4740383 C40.355528,34.4740383 34.1466283,28.2651386 34.1466283,20.603339 C34.1466283,12.9444394 40.355528,0.00173999991 48.0173276,0.00173999991 C55.6733273,0.00173999991 61.8851269,12.9444394 61.8851269,20.603339 Z"
                id="Stroke-19" stroke="#00205B" stroke-width="4.34999979" stroke-linecap="round" />
            </g>
          </g>
          <path d="M165.0625,66.6041667 L159.270833,78.1875" id="Shape" stroke="#FF8200"
            stroke-width="5.79999971" stroke-linecap="round" />
          <path d="M121.625,78.1875 L118.729167,66.6041667" id="Shape" stroke="#FF8200"
            stroke-width="5.79999971" stroke-linecap="round" />
          <path d="M89.8671541,102.744193 L78.1875,95.5625" id="Shape" stroke="#FF8200"
            stroke-width="5.79999971" stroke-linecap="round" />
          <path d="M78.1875,141.895833 L63.7083333,142.185417" id="Shape" stroke="#FF8200"
            stroke-width="5.79999971" stroke-linecap="round" />
        </g>
        <g class="deal" id="icon" transform="translate(786.000000, 360.000000)">
          <circle id="Oval" fill="#F6F6F6" cx="107.5" cy="107.5" r="107.5" />
          <g id="icons/deals/star" transform="translate(37.770270, 34.864865)">
            <g id="Group-9" transform="translate(28.999999, 28.999999)">
              <path
                d="M47.3311877,3.75114981 L54.8798873,19.0428491 C55.8571872,21.029349 57.7537872,22.4068489 59.946187,22.7258489 L76.8212862,25.1792488 C82.3428859,25.9796487 84.5468858,32.7627484 80.550686,36.6574482 L68.3416866,48.5619476 C66.7524867,50.1076475 66.0303867,52.3348474 66.4044867,54.5185473 L69.2870866,71.3269465 C70.2295865,76.8253462 64.4585868,81.018746 59.5227871,78.4203461 L44.4282878,70.4859465 C42.4678879,69.4535466 40.124688,69.4535466 38.1642881,70.4859465 L23.0697889,78.4203461 C18.1310891,81.018746 12.3600894,76.8253462 13.3054893,71.3269465 L16.1880892,54.5185473 C16.5621892,52.3348474 15.8371892,50.1076475 14.2508893,48.5619476 L2.0389899,36.6574482 C-1.9543099,32.7627484 0.249689988,25.9796487 5.76838972,25.1792488 L22.6463889,22.7258489 C24.8387888,22.4068489 26.7324887,21.029349 27.7126886,19.0428491 L35.2584883,3.75114981 C37.7292881,-1.25134994 44.8603878,-1.25134994 47.3311877,3.75114981"
                id="Fill-1" fill="#FFFFFF" />
              <path
                d="M47.3311877,3.75114981 L54.8798873,19.0428491 C55.8571872,21.029349 57.7537872,22.4068489 59.946187,22.7258489 L76.8212862,25.1792488 C82.3428859,25.9796487 84.5468858,32.7627484 80.550686,36.6574482 L68.3416866,48.5619476 C66.7524867,50.1076475 66.0303867,52.3348474 66.4044867,54.5185473 L69.2870866,71.3269465 C70.2295865,76.8253462 64.4585868,81.018746 59.5227871,78.4203461 L44.4282878,70.4859465 C42.4678879,69.4535466 40.124688,69.4535466 38.1642881,70.4859465 L23.0697889,78.4203461 C18.1310891,81.018746 12.3600894,76.8253462 13.3054893,71.3269465 L16.1880892,54.5185473 C16.5621892,52.3348474 15.8371892,50.1076475 14.2508893,48.5619476 L2.0389899,36.6574482 C-1.9543099,32.7627484 0.249689988,25.9796487 5.76838972,25.1792488 L22.6463889,22.7258489 C24.8387888,22.4068489 26.7324887,21.029349 27.7126886,19.0428491 L35.2584883,3.75114981 C37.7292881,-1.25134994 44.8603878,-1.25134994 47.3311877,3.75114981 Z"
                id="Stroke-3" stroke="#00205B" stroke-width="4.34999979" stroke-linecap="round" />
              <path
                d="M35.3759383,48.8681876 C35.3759383,52.3104874 38.1657381,55.1031873 41.6109379,55.1031873 C45.0561378,55.1031873 47.8488376,52.3104874 47.8488376,48.8681876 C47.8488376,45.4229878 45.0561378,42.6331879 41.6109379,42.6331879 L41.6109379,42.6331879 C38.1657381,42.6331879 35.3759383,39.840488 35.3759383,36.3981882 C35.3759383,32.9529884 38.1657381,30.1602885 41.6109379,30.1602885 C45.0561378,30.1602885 47.8488376,32.9529884 47.8488376,36.3981882"
                id="Stroke-5" stroke="#00205B" stroke-width="4.34999979" stroke-linecap="round" />
              <path d="M41.6120979,26.1423387 L41.6120979,59.6170371" id="Stroke-7" stroke="#00205B"
                stroke-width="4.34999979" stroke-linecap="round" />
            </g>
          </g>
        </g>
        <g class="bike" id="icon" transform="translate(204.000000, 321.000000)">
          <circle id="Oval" stroke="#F6F6F6" stroke-width="42.9" cx="82.5" cy="82.5" r="61.05" />
          <g id="icons/travel-items/bike" transform="translate(20.000000, 20.000000)"
            stroke="#00205B" stroke-linecap="round" stroke-width="3.89999986">
            <path
              d="M54.252768,68.2908981 C54.252768,76.7376664 47.2693833,83.5866474 38.6539478,83.5866474 C30.0361539,83.5866474 23.0527692,76.7376664 23.0527692,68.2908981 C23.0527692,59.8441298 30.0361539,52.9974611 38.6539478,52.9974611 C47.2693833,52.9974611 54.252768,59.8441298 54.252768,68.2908981"
              id="Fill-98" />
            <path
              d="M54.252768,68.2908981 C54.252768,76.7376664 47.2693833,83.5866474 38.6539478,83.5866474 C30.0361539,83.5866474 23.0527692,76.7376664 23.0527692,68.2908981 C23.0527692,59.8441298 30.0361539,52.9974611 38.6539478,52.9974611 C47.2693833,52.9974611 54.252768,59.8441298 54.252768,68.2908981 Z"
              id="Stroke-100" />
            <path
              d="M101.052766,68.2908981 C101.052766,76.7376664 94.0670231,83.5866474 85.4515876,83.5866474 C76.8361522,83.5866474 69.8527674,76.7376664 69.8527674,68.2908981 C69.8527674,59.8441298 76.8361522,52.9974611 85.4515876,52.9974611 C94.0670231,52.9974611 101.052766,59.8441298 101.052766,68.2908981"
              id="Fill-102" />
            <path
              d="M101.052766,68.2908981 C101.052766,76.7376664 94.0670231,83.5866474 85.4515876,83.5866474 C76.8361522,83.5866474 69.8527674,76.7376664 69.8527674,68.2908981 C69.8527674,59.8441298 76.8361522,52.9974611 85.4515876,52.9974611 C94.0670231,52.9974611 101.052766,59.8441298 101.052766,68.2908981 Z"
              id="Stroke-104" />
            <path d="M85.4527669,68.2908981 L69.8527674,44.650121" id="Stroke-106" />
            <polyline id="Stroke-108"
              points="59.4527678 67.8684441 49.1467787 39.1868909 43.8527684 39.1868909" />
            <path
              d="M57.6644803,68.2626883 L40.7667653,68.2626883 C39.192924,68.2626883 38.1741429,66.6255922 38.8814346,65.2359104 L48.9544869,45.5190768 C49.3175009,44.8138306 50.0458709,44.3721846 50.8421596,44.3721846 L67.7398746,44.3721846 C69.3137158,44.3721846 70.332497,46.0092807 69.6228632,47.3989625 L59.5498109,67.1157961 C59.189139,67.81873 58.460769,68.2626883 57.6644803,68.2626883 Z"
              id="Stroke-110" />
            <path
              d="M69.8527674,44.6508147 L69.8527674,39.1637681 L77.785039,39.1637681 C79.1501652,39.1637681 80.2527671,40.430899 80.2527671,41.9916897 L80.2527671,42.7084973"
              id="Stroke-112" />
          </g>
        </g>
        <g class="entertainment" id="icon" transform="translate(954.000000, 195.000000)">
          <circle id="Oval" fill="#F6F6F6" cx="62.5" cy="62.5" r="62.5" />
          <g id="icons/entertainment/movies">
            <g id="Group-15" transform="translate(25.999999, 23.399999)">
              <path
                d="M66.902248,73.2369598 L8.34572839,73.2369598 C6.59536324,73.2369598 5.18051111,71.8294932 5.18051111,70.0952933 L5.18051111,41.0191693 L70.0674653,41.0191693 L70.0674653,70.0952933 C70.0674653,71.8294932 68.6494479,73.2369598 66.902248,73.2369598"
                id="Fill-1" fill="#FFFFFF" />
              <path
                d="M66.902248,73.2369598 L8.34572839,73.2369598 C6.59536324,73.2369598 5.18051111,71.8294932 5.18051111,70.0952933 L5.18051111,41.0191693 L70.0674653,41.0191693 L70.0674653,70.0952933 C70.0674653,71.8294932 68.6494479,73.2369598 66.902248,73.2369598 Z"
                id="Stroke-3" stroke="#00205B" stroke-width="3.89999986" stroke-linecap="round" />
              <path
                d="M66.2932602,15.9829144 L5.17924503,37.6258553 L0.184532167,23.7271225 C-0.401033029,22.0934559 0.456740853,20.2964226 2.10265384,19.7120726 L57.2565649,0.183473327 C58.8993126,-0.397734985 60.7098169,0.45365665 61.2985473,2.08732326 L66.2932602,15.9829144 Z"
                id="Fill-5" fill="#FFFFFF" />
              <path
                d="M66.2932602,15.9829144 L5.17924503,37.6258553 L0.184532167,23.7271225 C-0.401033029,22.0934559 0.456740853,20.2964226 2.10265384,19.7120726 L57.2565649,0.183473327 C58.8993126,-0.397734985 60.7098169,0.45365665 61.2985473,2.08732326 L66.2932602,15.9829144 Z"
                id="Stroke-7" stroke="#00205B" stroke-width="3.89999986" stroke-linecap="round" />
              <path d="M3.91948855,19.0708585 L25.9905486,29.4540664" id="Stroke-9" stroke="#00205B"
                stroke-width="3.89999986" stroke-linecap="round" />
              <path d="M20.271001,13.2798245 L42.3420611,23.6630325" id="Stroke-11" stroke="#00205B"
                stroke-width="3.89999986" stroke-linecap="round" />
              <path d="M37.3891291,7.2189214 L59.4570239,17.6021294" id="Stroke-13" stroke="#00205B"
                stroke-width="3.89999986" stroke-linecap="round" />
            </g>
          </g>
        </g>
      </g>
      <g id="mag-glass" transform="translate(474.000000, 196.911688)">
        <g id="Rectangle" transform="translate(301.229515, 298.639053)">
          <mask id="mask-6" fill="white">
            <use xlink:href="#path-5" />
          </mask>
          <use id="Mask" fill="#00205B"
            transform="translate(95.414514, 95.680473) rotate(-45.000000) translate(-95.414514, -95.680473) "
            xlink:href="#path-5" />
          <polygon fill="#FF8200" mask="url(#mask-6)"
            transform="translate(32.258427, 32.093735) rotate(-315.000000) translate(-32.258427, -32.093735) "
            points="17.0245363 14.7092824 47.3003623 14.8772434 47.4923177 49.4781874 17.2164916 49.3102265" />
        </g>
        <ellipse id="Oval" stroke="#00205B" stroke-width="4.34999979" fill="#8DC8E8" cx="191.029515"
          cy="188.461538" rx="188.5" ry="188.461538" />
        <ellipse id="Oval" stroke="#00205B" stroke-width="4.34999979" fill="#F6F6F6" cx="192.479515"
          cy="189.911243" rx="166.75" ry="166.715976" />
      </g>
    </g>
  </g>
</svg>
