<svg xmlns="http://www.w3.org/2000/svg" xmlns:xlink="http://www.w3.org/1999/xlink" version="1.1"
  id="Layer_1" x="0px" y="0px" width="96px" height="96px" viewBox="0 0 96 96"
  style="enable-background:new 0 0 96 96;" xml:space="preserve">
  <style type="text/css">
    .st0{fill-rule:evenodd;clip-rule:evenodd;fill:#00205B;}
    .st1{fill:#00205B;}
  </style>
  <path class="st0" d="M5.3,29.2H2.6l0,2.7h2.7V29.2z M5.3,34.7H2.6h0v14.4c0,1-0.6,1.4-1.5,1.4H0.3v2.6h1.1c2.3,0,3.9-1.5,3.9-3.8  V34.7z"/>
  <path class="st0" d="M18.2,40.2v2.2H9.8c0,2.2,1.3,3.3,3.2,3.3c1.1,0,2.2-0.5,3-1.3l2,1.7c-1.2,1.4-3,2.2-4.9,2.2  c-2.8,0-6-1.3-6-6.9c0-5.3,3-7,5.6-7C15.6,34.5,18.2,36.7,18.2,40.2z M12.6,37.1c-1.6,0-2.8,1.1-2.8,3.1h5.7  C15.4,38.2,14.2,37.1,12.6,37.1z"/>
  <path class="st1" d="M20.3,30.6H23v4.1h2v2.1h-2v7.9c0,0.8,0.3,1,1,1h1v2.6h-1.4c-1.9,0-3.3-1.2-3.3-3.3v-8.1H19v-2.1h1.4V30.6z"/>
  <path class="st0" d="M26.7,48.2h8c2.8,0,5.3-2.1,5.3-5.4c0-1.9-1-3.9-3.1-4.4v-0.1c2.2-1,2.8-2.5,2.8-4.1c0-3-1.9-5.1-5.6-5.1h-7.4  V48.2z M34,39.8c2.1,0,3.1,1.4,3.1,2.9s-1,2.9-3.1,2.9h-4.4v-5.7H34z M36.8,34.5c0-1.5-1-2.7-3.1-2.7h-4.2v5.4h4.2  C35.8,37.2,36.8,36,36.8,34.5z"/>
  <path class="st1" d="M41.5,29.2h2.7v15.5c0,0.6,0.3,0.9,1,0.9h0.9v2.6H45c-2,0-3.5-0.9-3.5-3.3L41.5,29.2z"/>
  <path class="st1" d="M47.3,34.7H50v8.1c0,1.8,1.1,2.9,2.7,2.9c1.5,0,2.7-1.1,2.7-2.9v-8.1h2.7v13.5h-2.7v-1.4h-0.1  c-0.8,1.1-2.1,1.6-3.5,1.6c-1.2,0-2.4-0.5-3.3-1.4c-0.9-0.9-1.3-2.1-1.3-3.3V34.7z"/>
  <path class="st0" d="M70.7,40.2v2.2l-8.4,0c0,2.2,1.3,3.3,3.2,3.3c1.1,0,2.2-0.5,3-1.3l2,1.7c-1.2,1.4-3,2.2-4.9,2.2  c-2.8,0-6-1.3-6-6.9c0-5.3,3-7,5.6-7C68.1,34.5,70.7,36.7,70.7,40.2z M65.1,37.1c-1.6,0-2.8,1.1-2.8,3.1H68  C67.9,38.2,66.7,37.1,65.1,37.1z"/>
  <path class="st1" d="M9.8,53.8l1.6,3.8l1.6,4.2l1.6-4.2l1.6-3.8h1.8l-4.1,9.7h-1.7L8,53.8H9.8z"/>
  <path class="st0" d="M26.9,61.8l0,1.7h1.6v-9.7h-1.6v1.8c-0.7-1.4-2.1-2-3.6-2c-2.7,0-5,1.8-5,5c0,3.1,2.2,5.1,4.9,5.1  C24.8,63.7,26.1,63,26.9,61.8z M20.9,61.2c-0.7-0.7-1-1.6-1-2.5c0-2.3,1.6-3.6,3.5-3.6c4.7,0,4.7,7.1,0,7.1  C22.5,62.3,21.6,61.9,20.9,61.2z"/>
  <path class="st1" d="M38.6,62.2c-0.9,1-2.2,1.5-3.6,1.5c-2.8,0-5-1.9-5-5.1s2.2-5,5-5c1.3,0,2.6,0.5,3.5,1.4l-1,1.1  c-1-1-2.5-1.2-3.8-0.7c-1.3,0.6-2.1,1.8-2.1,3.2c0,2.3,1.6,3.5,3.5,3.5c0.9,0,1.8-0.4,2.5-1L38.6,62.2L38.6,62.2z"/>
  <path class="st0" d="M47.8,61.8l0,1.7h1.6v-9.7h-1.6v1.8c-0.7-1.4-2.1-2-3.6-2c-2.7,0-5,1.8-5,5c0,3.1,2.2,5.1,4.9,5.1  C45.7,63.7,47.1,63,47.8,61.8z M41.9,61.2c-0.7-0.7-1-1.6-1-2.5c0-2.3,1.6-3.6,3.5-3.6c4.7,0,4.7,7.1,0,7.1  C43.4,62.3,42.5,61.9,41.9,61.2z"/>
  <path class="st1" d="M54.6,53.8h3v1.4h-3v5.3c0,1.1,0.4,1.9,1.5,1.9c0.5,0,0.9-0.2,1.3-0.4l0.5,1.3c-0.6,0.3-1.2,0.4-1.9,0.5  c-2.1,0.1-3-1.2-3-3.3v-5.3H51v-1.4H53v-2.6l1.6-0.2L54.6,53.8z"/>
  <path class="st0" d="M61,50.1c-0.2-0.2-0.5-0.3-0.8-0.3c-0.3,0-0.6,0.1-0.8,0.3c-0.2,0.2-0.3,0.5-0.3,0.8c0,0.3,0.1,0.6,0.3,0.8  c0.2,0.2,0.5,0.3,0.8,0.3c0.3,0,0.6-0.1,0.8-0.3c0.2-0.2,0.3-0.5,0.3-0.7C61.3,50.6,61.2,50.3,61,50.1z M61,53.8h-1.6v9.6H61V53.8z"/>
  <path class="st1" d="M74.9,53.8h1.5l0.1,1.5c0.7-1.1,1.9-1.8,3.3-1.7c2.4,0,4.1,1.6,4.1,4.5v5.4h-1.6v-5.3c0-1.9-0.9-3-2.8-3  c-1.8,0-2.9,1.5-2.9,3.2v5.2h-1.6V53.8z"/>
  <path class="st1" d="M91.9,56c-0.7-0.7-1.7-1-2.7-0.9c-1.3,0-2.4,0.4-2.4,1.4c0,1,1.2,1.3,2.4,1.4c1.7,0.2,4.1,0.6,4,3  c-0.1,2-1.9,2.9-4,2.9c-1.6,0-3.3-0.4-4.4-1.8l1-1.1c0.8,1.1,2.3,1.4,3.4,1.4c1.1,0,2.4-0.3,2.4-1.5c0-1-1.1-1.4-2.6-1.6  c-1.9-0.2-3.9-0.7-3.9-2.8c0-2,2-2.8,3.9-2.8c1.3-0.1,2.7,0.4,3.7,1.3L91.9,56z"/>
  <path class="st0" d="M73.4,58.9c0,2.1-1.3,4.1-3.2,4.9l-2.1,3l-2.1-3c-2.5-1.1-3.8-3.8-3.1-6.3c0.7-2.6,3.2-4.2,5.9-3.9  C71.4,53.9,73.4,56.2,73.4,58.9L73.4,58.9z M70.2,58.7c0,0.9-0.5,1.7-1.4,2c-0.8,0.3-1.8,0.2-2.4-0.5c-0.6-0.6-0.8-1.6-0.5-2.4  c0.3-0.8,1.1-1.4,2-1.4C69.3,56.5,70.2,57.5,70.2,58.7z M68,55.6c1.7,0,3.1,1.4,3.1,3.1c0,1.7-1.4,3.1-3.1,3.1  c-1.7,0-3.1-1.4-3.1-3.1C64.9,57,66.3,55.6,68,55.6z"/>
  <path class="st0" d="M93.9,54.5c0,0.5,0.4,0.9,0.9,0.9c0.5,0,0.9-0.4,0.9-0.9c0-0.5-0.4-0.9-0.9-0.9C94.3,53.6,93.9,54,93.9,54.5z   M94.1,54.2c0.1-0.3,0.4-0.4,0.7-0.4c0.2,0,0.4,0.1,0.5,0.2s0.2,0.3,0.2,0.5c0,0.3-0.2,0.6-0.4,0.7c-0.3,0.1-0.6,0-0.8-0.2  C94.1,54.8,94,54.5,94.1,54.2z M95,55l-0.2-0.4h-0.1V55h-0.2v-1h0.4c0.1,0,0.2,0,0.2,0.1c0.1,0.1,0.1,0.1,0.1,0.2  c0,0.1-0.1,0.2-0.2,0.3l0.2,0.4L95,55z M94.7,54.2h0.2v0c0.1,0,0.1,0.1,0.1,0.1c0,0.1-0.1,0.1-0.1,0.1h-0.2V54.2z"/>
  </svg>