<svg xmlns="http://www.w3.org/2000/svg" width="48" height="48" viewBox="0 0 48 48" focusable="false"
  fill="#1e40af">
  <g transform="translate(7 6.09)">
    <path
      d="M28.164 20.944c.707.904.418 2.37-.72 3.26l-7.459 5.827c-1.138.889-2.631.815-3.337-.09L6.482 16.932c-.335-.43-.46-1.006-.336-1.611L7.72 7.635c.064-.313.399-.58.721-.573l8.05.18c.637.015 1.186.277 1.53.718l10.144 12.984zm1.182-.924L19.203 7.037c-.629-.804-1.602-1.27-2.68-1.294l-8.049-.18c-1.046-.024-2.015.746-2.225 1.77L4.677 15.02c-.21 1.027.01 2.052.623 2.835l10.166 13.011c1.248 1.598 3.687 1.72 5.443.348l7.458-5.827c1.756-1.372 2.228-3.768.98-5.366z"></path>
    <path d="M9.849 11.404a1.35 1.35 0 1 0 2.672-.376 1.35 1.35 0 0 0-2.672.376"></path>
  </g>
</svg>