<svg width="31" height="29" viewBox="0 0 31 29" fill="none" xmlns="http://www.w3.org/2000/svg">
<path d="M0 1.8125C0 1.56386 0.108649 1.3254 0.302046 1.14959C0.495443 0.973772 0.757746 0.875 1.03125 0.875H4.125C4.35503 0.875058 4.57844 0.945033 4.7597 1.0738C4.94095 1.20256 5.06964 1.38272 5.12531 1.58562L5.96063 4.625H29.9062C30.0577 4.62513 30.2072 4.65557 30.3442 4.71416C30.4812 4.77275 30.6024 4.85805 30.6991 4.96401C30.7957 5.06996 30.8655 5.19397 30.9035 5.32722C30.9415 5.46047 30.9468 5.59969 30.9189 5.735L27.8252 20.735C27.781 20.9498 27.6555 21.1439 27.4706 21.2836C27.2857 21.4232 27.0529 21.4998 26.8125 21.5H8.25C8.00958 21.4998 7.77679 21.4232 7.59188 21.2836C7.40697 21.1439 7.28155 20.9498 7.23731 20.735L4.14563 5.76313L3.32063 2.75H1.03125C0.757746 2.75 0.495443 2.65123 0.302046 2.47541C0.108649 2.2996 0 2.06114 0 1.8125ZM6.39787 6.5L9.10594 19.625H25.9566L28.6646 6.5H6.39787ZM10.3125 21.5C9.21848 21.5 8.16927 21.8951 7.39568 22.5984C6.6221 23.3016 6.1875 24.2554 6.1875 25.25C6.1875 26.2446 6.6221 27.1984 7.39568 27.9016C8.16927 28.6049 9.21848 29 10.3125 29C11.4065 29 12.4557 28.6049 13.2293 27.9016C14.0029 27.1984 14.4375 26.2446 14.4375 25.25C14.4375 24.2554 14.0029 23.3016 13.2293 22.5984C12.4557 21.8951 11.4065 21.5 10.3125 21.5ZM24.75 21.5C23.656 21.5 22.6068 21.8951 21.8332 22.5984C21.0596 23.3016 20.625 24.2554 20.625 25.25C20.625 26.2446 21.0596 27.1984 21.8332 27.9016C22.6068 28.6049 23.656 29 24.75 29C25.844 29 26.8932 28.6049 27.6668 27.9016C28.4404 27.1984 28.875 26.2446 28.875 25.25C28.875 24.2554 28.4404 23.3016 27.6668 22.5984C26.8932 21.8951 25.844 21.5 24.75 21.5ZM10.3125 23.375C10.8595 23.375 11.3841 23.5725 11.7709 23.9242C12.1577 24.2758 12.375 24.7527 12.375 25.25C12.375 25.7473 12.1577 26.2242 11.7709 26.5758C11.3841 26.9275 10.8595 27.125 10.3125 27.125C9.76549 27.125 9.24089 26.9275 8.85409 26.5758C8.4673 26.2242 8.25 25.7473 8.25 25.25C8.25 24.7527 8.4673 24.2758 8.85409 23.9242C9.24089 23.5725 9.76549 23.375 10.3125 23.375ZM24.75 23.375C25.297 23.375 25.8216 23.5725 26.2084 23.9242C26.5952 24.2758 26.8125 24.7527 26.8125 25.25C26.8125 25.7473 26.5952 26.2242 26.2084 26.5758C25.8216 26.9275 25.297 27.125 24.75 27.125C24.203 27.125 23.6784 26.9275 23.2916 26.5758C22.9048 26.2242 22.6875 25.7473 22.6875 25.25C22.6875 24.7527 22.9048 24.2758 23.2916 23.9242C23.6784 23.5725 24.203 23.375 24.75 23.375Z" fill="white"/>
</svg>
