<svg xmlns="http://www.w3.org/2000/svg" width="48" height="48" viewBox="0 0 48 48" focusable="false"
  fill="#1e40af">
  <g transform="translate(11 11)">
    <path
      d="M15.438 4.321a.098.098 0 0 0 .008.001h-.008zm-.354.129a4.577 4.577 0 0 0-.452.265c-.102.066-.57.388-.676.453-1.453.884-2.768.777-3.135-.462-.27-.908.206-2.133 1.142-3.101a.75.75 0 1 1 1.078 1.042c-.578.598-.854 1.284-.79 1.602.178.005.499-.103.925-.363.063-.038.504-.342.637-.428.215-.14.41-.256.603-.351.971-.483 1.886-.428 2.295.594.352.878.065 1.42-.652 1.983l-.06.047c-.192.15-.254.215-.269.252-.066.166-.065.285-.005.55l.03.13c.125.524.158.833.071 1.277-.112.581-.353.88-.887 1.324-.329.274-.38.346-.386.569-.009.275.02.535.093.923.122.663.114.614.118.83.01.447-.142.832-.534 1.073-.525.325-1.051.27-1.825.01a13.79 13.79 0 0 1-.237-.082 18.03 18.03 0 0 0-.317-.11c.207.523.825 1.453 1.211 1.802.374.337.582.434 1.187.615.553.167.865.313 1.223.65.325.307.608.728.879 1.31 1.326 2.853-.125 8.28-3.173 9.025l-.525.128-.288-.458a2.204 2.204 0 0 1-.317-.899c-.033-.246-.033-.434-.015-.798.019-.391.01-.446.01-.445a.412.412 0 0 0-.154-.088 1.275 1.275 0 0 0-.13-.023c-.643-.094-1.073-.236-1.902-.725-1.753-1.033-2.298-3.145-1.914-5.964.099-.72.04-1.892-.141-2.958-.048-.281-.101-.54-.158-.766-.452.89-.697 1.21-1.367 1.21-3.076 0-3.938-6.906-2.2-9.195a.75.75 0 1 1 1.195.907c-1.074 1.413-.504 6.375.837 6.763.047-.075.105-.183.19-.349l.045-.09c.5-.99.77-1.335 1.517-1.285 1.237.079 1.865 3.795 1.569 5.966-.312 2.286.083 3.817 1.188 4.468.654.385.9.467 1.358.534a1.88 1.88 0 0 1 .985.408c.541.419.613.825.57 1.705l-.006.144c1.532-1.188 2.317-4.752 1.466-6.581-.197-.423-.376-.69-.547-.851-.15-.141-.277-.201-.627-.306-.798-.24-1.184-.419-1.76-.938-.854-.773-1.945-2.51-1.745-3.516.13-.661.629-1.018 1.257-.99.311.015.491.069 1.103.287l.211.074c.144.048.259.08.346.1l-.058-.32c-.09-.484-.13-.836-.118-1.24.024-.762.298-1.153.924-1.675.288-.24.349-.315.377-.46.035-.18.021-.311-.058-.643l-.034-.145c-.121-.534-.122-.94.074-1.436.145-.364.343-.57.738-.879l.06-.046c.124-.098.18-.135.201-.159-.065.02-.15.055-.251.105zm-7.126 7.866l.004-.001h-.004zm-.545-.115a.366.366 0 0 0-.012-.02l.012.02zm15.64 8.266a.75.75 0 1 1-1.041 1.08c-1.086-1.05-1.925-2.038-2.382-2.962-.745-1.505-.345-2.811 1.387-3.268 1.008-.265 1.43-.565 1.477-.782.031-.148-.12-.446-.488-.809a4.114 4.114 0 0 0-.374-.318l-.57-.431c-.9-.7-1.427-1.346-1.683-2.32-.531-2.018.585-4.807 2.521-5.272a.75.75 0 1 1 .35 1.458c-.997.24-1.76 2.145-1.42 3.432.155.594.487 1 1.152 1.516.095.074.477.36.568.431.205.159.365.294.51.437.695.686 1.067 1.416.9 2.192-.194.904-1.065 1.523-2.56 1.917-.713.188-.786.425-.426 1.151.36.728 1.11 1.612 2.08 2.548z"></path>
    <path
      d="M24.452 13.57c0-6.161-4.994-11.155-11.154-11.155S2.143 7.409 2.143 13.569s4.995 11.155 11.155 11.155c6.16 0 11.154-4.995 11.154-11.155zm1.5 0c0 6.987-5.666 12.654-12.654 12.654C6.31 26.224.643 20.557.643 13.57.643 6.581 6.309.915 13.298.915c6.988 0 12.654 5.666 12.654 12.654z"></path>
  </g>
</svg>